<svg viewBox="0 0 425.2 175.01" xmlns="http://www.w3.org/2000/svg"><path d="m123.29 137.11h-21.41v-137.11h21.41zm-123.29-136.4v136.4h48.58c25.08 0 41.81-15.58 41.81-37.25 0-16-9.88-30-24.13-33.77 10.15-4 16.14-16.43 16.14-28.95 0-19.14-13.79-36.43-39.64-36.43zm21.4 57v-37.61h17.75c13.85 0 21.85 7.4 21.85 18.8 0 11.22-8 18.82-21.28 18.82zm0 60v-40.79h24c14 0 21.85 9.84 21.85 21.43 0 12-8.93 19.38-22.63 19.38zm268.12-75.4c-10.24 0-21.21 4.35-27.28 15-6.57-10.56-12-13.08-30.49-13.08v18c7.29 2.47 9.09 9.71 9.09 21.78v53.22h22v-53.23c0-12.12 6.63-21.78 19.13-21.78 13.82 0 18.94 9.09 18.94 20.46v54.54h22v-58.36c-.06-20.26-10.86-36.55-33.39-36.55zm135.68 1.88v83.29c0 24.62-12.69 47.53-47.35 47.53-14.49 0-26-5.56-33.79-13.79l14.51-14.51.18-.1a22.37 22.37 0 0 0 18.53 9.27c17.42 0 26.14-8.89 26.14-27.64v-9.66c-4 7.2-13.26 13.45-26.7 13.45-24.62 0-42.62-18.94-42.62-44.89 0-24.62 17.23-44.88 42.62-44.88 14.38 0 23.29 5.87 27.27 13.45v-11.52zm-21.78 43c0-15.71-9.47-25.94-23.11-25.94-14 0-24.05 10.23-24.05 25.94 0 16.1 9.66 26.14 24.05 26.14 14.02-.05 23.11-10.27 23.11-26.19zm-207.12-43v46.21c0 12.14-6.63 21.81-19.13 21.81-13.82 0-18.94-9.1-18.94-20.48v-47.54h-22v51.33c0 20.28 18.36 36.59 40.91 36.59 8.18 0 15.79-3.63 22.21-9.15v9.82c0 12.12-8.64 22.32-21.15 22.32-8.2 0-14-3.6-17.19-8.21l-15 15a42.55 42.55 0 0 0 31.11 13.11c22.62 0 41.12-16.13 41.1-36.8 0-8.29 1.06-94 1.06-94z" fill="#3259a5"/></svg>